<?xml version="1.0" standalone="no"?>
<!DOCTYPE svg PUBLIC "-//W3C//DTD SVG 20010904//EN"
 "http://www.w3.org/TR/2001/REC-SVG-20010904/DTD/svg10.dtd">
<svg version="1.0" xmlns="http://www.w3.org/2000/svg"
 width="512.000000pt" height="512.000000pt" viewBox="0 0 512.000000 512.000000"
 preserveAspectRatio="xMidYMid meet">

<g transform="translate(0.000000,512.000000) scale(0.100000,-0.100000)"
fill="#000000" stroke="none">
<path d="M3360 4996 c-166 -35 -288 -111 -434 -272 -56 -60 -193 -211 -306
-335 -243 -266 -853 -879 -1100 -1105 -425 -389 -777 -683 -1152 -963 -181
-134 -263 -232 -319 -380 -62 -166 -63 -365 -2 -508 11 -26 17 -73 18 -153 1
-94 7 -130 28 -195 69 -210 234 -365 447 -420 82 -21 228 -21 310 0 35 9 66
13 70 8 4 -4 12 -23 19 -42 46 -140 206 -317 351 -389 163 -81 328 -102 486
-62 83 21 506 225 779 375 415 229 796 485 1110 746 140 117 473 451 591 594
277 336 497 681 722 1130 89 180 120 265 134 380 20 157 -15 329 -94 463 -46
79 -179 209 -260 256 l-68 39 0 46 c0 67 -24 154 -67 241 -52 105 -179 232
-283 283 -88 43 -182 67 -262 67 -54 0 -62 3 -119 49 -72 58 -179 113 -264
136 -82 23 -254 28 -335 11z m244 -157 c34 -6 92 -25 131 -43 l70 -32 -48 -23
c-40 -19 -52 -21 -79 -12 -40 14 -116 14 -159 0 -46 -15 -522 -373 -581 -437
-55 -59 -129 -170 -159 -239 -11 -26 -50 -133 -85 -237 -35 -103 -72 -202 -83
-220 -48 -77 -114 -123 -376 -266 -143 -78 -292 -166 -332 -196 -152 -116
-258 -253 -372 -482 -92 -183 -137 -225 -288 -271 -172 -51 -391 -159 -585
-287 -105 -70 -149 -115 -166 -172 -10 -33 -21 -42 -89 -77 -56 -28 -100 -61
-155 -116 -43 -43 -80 -74 -83 -69 -9 14 15 171 34 221 51 132 101 188 299
336 772 576 1612 1361 2443 2284 97 107 194 209 215 226 68 53 162 94 269 117
39 8 119 6 179 -5z m30 -270 c35 -16 52 -61 37 -96 -8 -18 -88 -84 -228 -188
-229 -170 -313 -250 -356 -339 -15 -31 -57 -142 -92 -247 -73 -217 -112 -293
-191 -379 -80 -85 -121 -113 -400 -265 -286 -157 -318 -179 -412 -279 -53 -58
-83 -103 -137 -208 -122 -239 -211 -353 -330 -423 -26 -15 -107 -46 -180 -70
-147 -48 -310 -126 -454 -217 -162 -103 -163 -104 -199 -89 -40 17 -59 60 -43
99 30 73 449 303 653 358 182 49 263 126 384 364 101 198 188 312 307 404 40
30 184 116 322 191 287 158 318 178 374 241 67 76 95 136 173 364 77 227 119
308 206 397 37 37 448 353 497 381 25 15 38 15 69 1z m879 -524 c95 -20 191
-70 264 -138 122 -114 176 -241 175 -412 0 -131 -19 -190 -137 -426 -522
-1042 -1167 -1707 -2251 -2319 -204 -115 -685 -360 -783 -398 -94 -36 -236
-36 -333 0 -188 71 -319 207 -376 392 -24 78 -21 225 6 311 47 151 102 216
316 377 763 575 1575 1328 2324 2157 269 299 344 370 425 409 120 59 242 74
370 47z"/>
<path d="M4259 3877 c-86 -29 -119 -55 -239 -189 -85 -95 -100 -116 -100 -145
0 -44 37 -83 79 -83 35 0 52 15 166 143 86 96 124 122 200 132 66 9 91 22 106
56 14 34 -2 84 -32 99 -30 17 -111 11 -180 -13z"/>
<path d="M3685 3318 c-24 -24 -89 -91 -144 -151 -86 -91 -101 -112 -101 -140
0 -59 63 -102 110 -77 22 12 151 143 243 248 55 62 61 99 22 137 -38 39 -78
33 -130 -17z"/>
<path d="M3083 1458 c-12 -7 -95 -63 -185 -124 -169 -116 -399 -257 -551 -339
-48 -26 -94 -56 -102 -68 -37 -53 2 -127 68 -127 53 0 459 238 742 435 129 89
145 106 145 150 0 61 -66 102 -117 73z"/>
<path d="M1812 719 c-166 -80 -182 -93 -182 -149 0 -34 42 -72 80 -72 44 1
343 143 365 174 21 31 19 70 -6 102 -34 43 -73 35 -257 -55z"/>
</g>
</svg>
